<?xml version="1.0" encoding="UTF-8"?>
<svg width="16" height="16" version="1.1" viewBox="0 0 16 16" xmlns="http://www.w3.org/2000/svg"><path d="m2.561 0c-0.85646 0-0.85646 0.85646-0.85646 0.85646v10.277s0 0.85646 0.85646 0.85646h7.1511v-1.7196h2.2699v-0.57376h-1.6962v-2.2917h1.6962v-6.5489s0-0.85646-0.85646-0.85646zm9.421 7.4053v2.2917h1.7413v-2.2917zm0 2.8654v0.86315c0 0.85646-0.85646 0.85646-0.85646 0.85646h-1.4135v1.7246c0.003599 1.2639 1.0292 2.285 2.2917 2.285 1.267 0 2.2917-1.0247 2.2917-2.2917v-3.4375zm-5.1387-8.5579c1.8902 0 3.4258 1.5323 3.4258 3.4258 0 1.8902-1.5356 3.4258-3.4258 3.4258h-3.4258v-3.4258c0-1.8936 1.5323-3.4258 3.4258-3.4258zm0 1.7129c-0.94679 0-1.7129 0.76613-1.7129 1.7129 0 0.94679 0.76613 1.7129 1.7129 1.7129 0.94679 0 1.7129-0.76613 1.7129-1.7129 0-0.94678-0.76613-1.7129-1.7129-1.7129zm4.0146 4.5516v0.57376h0.57376v-0.57376zm1.7196 0h0.57209v0.57376h-0.57209z" fill="#3d3846"/></svg>
