<?xml version="1.0" encoding="UTF-8"?>
<svg width="16px" height="16px" version="1.1" viewBox="0 0 16 16" xmlns="http://www.w3.org/2000/svg"><path d="m8-4.45e-7c-2.4435 0-4.4443 2.0008-4.4443 4.4443v0.89624h2.2222v-0.89624c0-1.25 0.9722-2.2222 2.2222-2.2222 1.25 0 2.2222 0.9722 2.2222 2.2222v2.667h-6.6665c-1.2326 0-2.2222 0.98956-2.2222 2.2222v5.5554c0 0.6163 0.49478 1.1111 1.1111 1.1111h11.111c0.6163 0 1.1111-0.49478 1.1111-1.1111v-5.5554c0-1.2326-0.98956-2.2222-2.2222-2.2222v-2.667c0-2.4435-2.0008-4.4443-4.4443-4.4443zm0 9.1925a1.1465 1.1514 0 0 1 0.35372 0.056422 1.1465 1.1514 0 0 1 0.319 0.16276 1.1465 1.1514 0 0 1 0.2539 0.25607 1.1465 1.1514 0 0 1 0.16276 0.319 1.1465 1.1514 0 0 1 0.056422 0.35589 1.1465 1.1514 0 0 1-0.080293 0.42534 1.1465 1.1514 0 0 1-0.2322 0.3624 1.1465 1.1514 0 0 1-0.34721 0.2539v2.1202h-0.9722v-2.1202a1.1465 1.1514 0 0 1-0.34721-0.2539 1.1465 1.1514 0 0 1-0.2322-0.3624 1.1465 1.1514 0 0 1-0.080293-0.42534 1.1465 1.1514 0 0 1 0.056422-0.35589 1.1465 1.1514 0 0 1 0.16276-0.319 1.1465 1.1514 0 0 1 0.2539-0.25607 1.1465 1.1514 0 0 1 0.319-0.16276 1.1465 1.1514 0 0 1 0.35372-0.056422z"/></svg>
