<?xml version="1.0" encoding="UTF-8" standalone="no"?>
<svg
   height="37.335mm"
   viewBox="0 0 119.49 37.335"
   width="119.49mm"
   version="1.1"
   id="svg14"
   sodipodi:docname="archives-button.svg"
   inkscape:version="1.1.1 (3bf5ae0d25, 2021-09-20)"
   xmlns:inkscape="http://www.inkscape.org/namespaces/inkscape"
   xmlns:sodipodi="http://sodipodi.sourceforge.net/DTD/sodipodi-0.dtd"
   xmlns="http://www.w3.org/2000/svg"
   xmlns:svg="http://www.w3.org/2000/svg">
  <defs
     id="defs18">
    <inkscape:path-effect
       effect="fillet_chamfer"
       id="path-effect1703"
       is_visible="true"
       lpeversion="1"
       satellites_param="F,0,0,1,0,1.0583333,0,1 @ F,0,0,1,0,1.0583333,0,1 @ F,0,0,1,0,1.0583333,0,1 @ F,0,0,1,0,1.0583333,0,1"
       unit="px"
       method="auto"
       mode="F"
       radius="4"
       chamfer_steps="1"
       flexible="false"
       use_knot_distance="true"
       apply_no_radius="true"
       apply_with_radius="true"
       only_selected="false"
       hide_knots="false" />
    <inkscape:path-effect
       effect="fillet_chamfer"
       id="path-effect1684"
       is_visible="true"
       lpeversion="1"
       satellites_param="F,0,0,1,0,1.0583333,0,1 @ F,0,0,1,0,1.0583333,0,1 @ F,0,0,1,0,1.0583333,0,1 @ F,0,0,1,0,1.0583333,0,1"
       unit="px"
       method="auto"
       mode="F"
       radius="4"
       chamfer_steps="1"
       flexible="false"
       use_knot_distance="true"
       apply_no_radius="true"
       apply_with_radius="true"
       only_selected="false"
       hide_knots="false" />
    <inkscape:path-effect
       effect="fillet_chamfer"
       id="path-effect1650"
       is_visible="true"
       lpeversion="1"
       satellites_param="F,0,0,1,0,1.0583333,0,1 @ F,0,0,1,0,1.0583333,0,1 @ F,0,0,1,0,1.0583333,0,1 @ F,0,0,1,0,1.0583333,0,1"
       unit="px"
       method="auto"
       mode="F"
       radius="4"
       chamfer_steps="1"
       flexible="false"
       use_knot_distance="true"
       apply_no_radius="true"
       apply_with_radius="true"
       only_selected="false"
       hide_knots="false" />
  </defs>
  <sodipodi:namedview
     id="namedview16"
     pagecolor="#ffffff"
     bordercolor="#666666"
     borderopacity="1.0"
     inkscape:pageshadow="2"
     inkscape:pageopacity="0.0"
     inkscape:pagecheckerboard="0"
     inkscape:document-units="mm"
     showgrid="false"
     inkscape:zoom="2"
     inkscape:cx="308.25"
     inkscape:cy="-101"
     inkscape:window-width="2560"
     inkscape:window-height="1371"
     inkscape:window-x="0"
     inkscape:window-y="0"
     inkscape:window-maximized="1"
     inkscape:current-layer="svg14" />
  <path
     d="M 4,15.91 H 115.49 V 33.339 H 4 Z"
     fill="#d1e3f9"
     id="path2" />
  <path
     d="m 6.395,4 h 105.84 a 3.2579,3.2579 0 0 1 3.2579,3.2579 v 9.1775 H 4.0029 V 6.3954 A 2.3956,2.3956 0 0 1 6.3985,3.9998 Z"
     fill="#99c1f1"
     id="path4" />
  <g
     id="g2051"
     transform="translate(-4.983783)">
    <path
       d="m 79.817912,7.8130234 h 19.665325 a 1.0583333,1.0583333 45 0 1 1.058333,1.0583333 v 2.6924873 a 1.0583333,1.0583333 135 0 1 -1.058333,1.058333 H 79.817912 A 1.0583333,1.0583333 45 0 1 78.759579,11.563844 V 8.8713567 a 1.0583333,1.0583333 135 0 1 1.058333,-1.0583333 z"
       fill="#d1e3f9"
       opacity="0.39418"
       id="path10"
       style="opacity:1;stroke-width:1"
       inkscape:original-d="M 78.759579,7.8130234 H 100.54157 V 12.622177 H 78.759579 Z"
       inkscape:path-effect="#path-effect1650" />
    <path
       d="m 54.899023,7.8130235 h 19.665322 a 1.0583333,1.0583333 45 0 1 1.058333,1.0583333 v 2.6924872 a 1.0583333,1.0583333 135 0 1 -1.058333,1.058333 H 54.899023 A 1.0583333,1.0583333 45 0 1 53.84069,11.563844 l 0,-2.6924872 a 1.0583333,1.0583333 135 0 1 1.058333,-1.0583333 z"
       fill="#d1e3f9"
       opacity="0.39418"
       id="path10-3"
       style="opacity:1;stroke-width:1"
       inkscape:original-d="M 53.84069,7.8130235 H 75.622678 V 12.622177 H 53.84069 Z"
       inkscape:path-effect="#path-effect1684" />
    <path
       d="m 29.980129,7.8130235 h 19.665322 a 1.0583333,1.0583333 45 0 1 1.058333,1.0583333 v 2.6924872 a 1.0583333,1.0583333 135 0 1 -1.058333,1.058333 H 29.980129 A 1.0583333,1.0583333 45 0 1 28.921796,11.563844 V 8.8713568 a 1.0583333,1.0583333 135 0 1 1.058333,-1.0583333 z"
       fill="#d1e3f9"
       opacity="0.39418"
       id="path10-6"
       style="opacity:1;stroke-width:1"
       inkscape:original-d="M 28.921796,7.8130235 H 50.703784 V 12.622177 H 28.921796 Z"
       inkscape:path-effect="#path-effect1703" />
  </g>
  <path
     d="m 60.719735,10.547249 0.0141,8.0501 1.7991,-1.7575 1.2381,2.3268 c 0,0 0.24243,0.41886 0.87159,0.12895 0.4821,-0.22214 0.20909,-0.76154 0.20909,-0.76154 l -1.1056,-2.4037 2.3088,-0.0276 z"
     fill="#241f31"
     fill-rule="evenodd"
     id="path8" />
</svg>
