<svg height="37.335mm" viewBox="0 0 119.49 37.335" width="119.49mm" xmlns="http://www.w3.org/2000/svg"><g transform="translate(-37.893 -111.63)"><path d="m41.893 127.54h111.49v17.429h-111.49z" fill="#d1e3f9"/><path d="m44.288 115.63h105.84a3.2579 3.2579 45 0 1 3.2579 3.2579v9.1775h-111.49v-10.04a2.3956 2.3956 135 0 1 2.3956-2.3956z" fill="#99c1f1"/><path d="m49.536 118.74v2.5972h-2.5972v.86575h2.5972v2.5972h.86574v-2.5972h2.5972v-.86576h-2.5972v-2.5972z" fill="#241f31"/><path d="m52.568 123.68.0141 8.0501 1.7991-1.7575 1.2381 2.3268s.24243.41886.87159.12895c.4821-.22214.20909-.76154.20909-.76154l-1.1056-2.4037 2.3088-.0276z" fill="#241f31" fill-rule="evenodd"/><path d="m75.043 121.23h45.193v1.2348h-45.193z" fill="#d1e3f9" opacity=".39418"/></g></svg>