<?xml version="1.0" encoding="UTF-8"?>
<svg height="16px" viewBox="0 0 16 16" width="16px" xmlns="http://www.w3.org/2000/svg">
    <g fill="#3d3846">
        <path d="m 8.28125 2 c 0.1875 0.011719 0.375 0.03125 0.5625 0.0625 c 1.582031 0.226562 3.007812 1.066406 3.96875 2.34375 c 1.980469 2.640625 1.425781 6.425781 -1.21875 8.40625 c -2.640625 1.980469 -6.421875 1.421875 -8.40625 -1.21875 c -0.121094 -0.171875 -0.1875 -0.382812 -0.1875 -0.59375 v -1 h 1 c 0.320312 0 0.621094 0.152344 0.8125 0.40625 c 1.332031 1.777344 3.820312 2.113281 5.59375 0.78125 c 1.777344 -1.332031 2.113281 -3.816406 0.78125 -5.59375 s -3.816406 -2.113281 -5.59375 -0.78125 c -0.429688 0.324219 -0.769531 0.734375 -1.03125 1.1875 l -0.5625 2 h -3 v -3 l 2 -0.3125 c 1.160156 -1.769531 3.167969 -2.792969 5.28125 -2.6875 z m 0 0"/>
        <path d="m 7 8 l -6 -6 v 6 z m 0 0"/>
    </g>
</svg>
