<?xml version="1.0" encoding="UTF-8" standalone="no"?>
<svg
   xmlns:dc="http://purl.org/dc/elements/1.1/"
   xmlns:cc="http://creativecommons.org/ns#"
   xmlns:rdf="http://www.w3.org/1999/02/22-rdf-syntax-ns#"
   xmlns:svg="http://www.w3.org/2000/svg"
   xmlns="http://www.w3.org/2000/svg"
   xmlns:sodipodi="http://sodipodi.sourceforge.net/DTD/sodipodi-0.dtd"
   xmlns:inkscape="http://www.inkscape.org/namespaces/inkscape"
   height="16"
   viewBox="0 0 16 16"
   width="16"
   version="1.1"
   id="svg57"
   sodipodi:docname="app-symbolic.svg"
   inkscape:version="0.92.4 (5da689c313, 2019-01-14)">
  <metadata
     id="metadata63">
    <rdf:RDF>
      <cc:Work
         rdf:about="">
        <dc:format>image/svg+xml</dc:format>
        <dc:type
           rdf:resource="http://purl.org/dc/dcmitype/StillImage" />
        <dc:title></dc:title>
      </cc:Work>
    </rdf:RDF>
  </metadata>
  <defs
     id="defs61" />
  <sodipodi:namedview
     pagecolor="#ffffff"
     bordercolor="#666666"
     borderopacity="1"
     objecttolerance="10"
     gridtolerance="10"
     guidetolerance="10"
     inkscape:pageopacity="0"
     inkscape:pageshadow="2"
     inkscape:window-width="1920"
     inkscape:window-height="1016"
     id="namedview59"
     showgrid="false"
     inkscape:zoom="8"
     inkscape:cx="7.9320601"
     inkscape:cy="11.908035"
     inkscape:window-x="0"
     inkscape:window-y="27"
     inkscape:window-maximized="1"
     inkscape:current-layer="svg57" />
  <linearGradient
     id="a"
     gradientTransform="matrix(0.153846,0,0,0.132978,0.615395,86.489487)"
     gradientUnits="userSpaceOnUse"
     x1="47.999939"
     x2="463.99991"
     y1="267.0401"
     y2="267.0401">
    <stop
       offset="0"
       stop-color="#e5a50a"
       id="stop2" />
    <stop
       offset="0.0526316"
       stop-color="#f8e45c"
       id="stop4" />
    <stop
       offset="0.105263"
       stop-color="#f5c211"
       id="stop6" />
    <stop
       offset="0.894737"
       stop-color="#f5c211"
       id="stop8" />
    <stop
       offset="0.947368"
       stop-color="#f8e45c"
       id="stop10" />
    <stop
       offset="1"
       stop-color="#e5a50a"
       id="stop12" />
  </linearGradient>
  <linearGradient
     id="b"
     gradientTransform="matrix(0.182692,0,0,0.121897,9.231101,75.282013)"
     gradientUnits="userSpaceOnUse"
     x1="47.998379"
     x2="463.99991"
     y1="282.08029"
     y2="282.08029">
    <stop
       offset="0"
       stop-color="#e66100"
       id="stop15" />
    <stop
       offset="0.0526316"
       stop-color="#ffa348"
       id="stop17" />
    <stop
       offset="0.105263"
       stop-color="#e66100"
       id="stop19" />
    <stop
       offset="0.894737"
       stop-color="#e66100"
       id="stop21" />
    <stop
       offset="0.947368"
       stop-color="#ffa348"
       id="stop23" />
    <stop
       offset="1"
       stop-color="#e66100"
       id="stop25" />
  </linearGradient>
  <linearGradient
     id="c"
     gradientTransform="matrix(0.201924,0,0,0.143616,26.307674,55.808624)"
     gradientUnits="userSpaceOnUse"
     x1="47.999931"
     x2="463.99838"
     y1="267.0401"
     y2="267.0401">
    <stop
       offset="0"
       stop-color="#813d9c"
       id="stop28" />
    <stop
       offset="0.0526316"
       stop-color="#dc8add"
       id="stop30" />
    <stop
       offset="0.105263"
       stop-color="#9141ac"
       id="stop32" />
    <stop
       offset="0.894737"
       stop-color="#9141ac"
       id="stop34" />
    <stop
       offset="0.947368"
       stop-color="#dc8add"
       id="stop36" />
    <stop
       offset="1"
       stop-color="#9141ac"
       id="stop38" />
  </linearGradient>
  <path
     style="fill:#030000;fill-opacity:1;stroke:none;stroke-width:1;stroke-opacity:1"
     d="M 2.3339844 1 C 1.597657 1 1 1.6425783 1 2.4355469 L 1 13.564453 C 1 14.357422 1.597657 15 2.3339844 15 L 13.666016 15 C 14.402344 15 15 14.357422 15 13.564453 L 15 2.4355469 C 15 1.6425783 14.402344 1 13.666016 1 L 2.3339844 1 z M 3 3.0058594 L 3.7695312 3.0058594 C 4.1946837 3.0058594 4.5390625 3.3795264 4.5390625 3.8398438 L 4.5390625 5.2441406 C 5.4306818 3.7712875 6.976818 2.9204645 8.6015625 3.0058594 C 8.7465375 3.0156194 8.8904831 3.0333847 9.0332031 3.0585938 C 10.249321 3.2456485 11.346802 3.9476196 12.085938 5.0097656 C 13.610027 7.2105058 13.18151 10.361571 11.150391 12.011719 C 9.1177702 13.661056 6.206932 13.196021 4.6835938 10.996094 C 4.5889535 10.854583 4.5375549 10.677622 4.5390625 10.501953 L 4.5390625 9.6699219 L 5.3085938 9.6699219 C 5.5542209 9.6707339 5.7848651 9.7944066 5.9335938 10.005859 C 6.958166 11.486032 8.8699797 11.76638 10.236328 10.65625 C 11.603426 9.546934 11.862464 7.4801726 10.837891 6 C 9.8110642 4.5198273 7.9003023 4.2383399 6.5332031 5.3476562 C 6.2026952 5.6168525 5.9407922 5.9589014 5.7402344 6.3378906 L 6.8457031 6.3378906 C 7.2708556 6.3378906 7.6152344 6.7096046 7.6152344 7.1699219 L 7.6152344 8.0039062 L 3 8.0039062 L 3 3.0058594 z "
     id="path51" />
</svg>
