<?xml version="1.0" encoding="UTF-8"?>
<svg height="128px" viewBox="0 0 128 128" width="128px" xmlns="http://www.w3.org/2000/svg" xmlns:xlink="http://www.w3.org/1999/xlink">
    <linearGradient id="a" gradientTransform="matrix(0.153846 0 0 0.132978 0.615395 86.489487)" gradientUnits="userSpaceOnUse" x1="47.999939" x2="463.999908" y1="267.0401" y2="267.0401">
        <stop offset="0" stop-color="#e5a50a"/>
        <stop offset="0.0526316" stop-color="#f8e45c"/>
        <stop offset="0.105263" stop-color="#f5c211"/>
        <stop offset="0.894737" stop-color="#f5c211"/>
        <stop offset="0.947368" stop-color="#f8e45c"/>
        <stop offset="1" stop-color="#e5a50a"/>
    </linearGradient>
    <linearGradient id="b" gradientTransform="matrix(0.182692 0 0 0.121897 9.231101 75.282013)" gradientUnits="userSpaceOnUse" x1="47.998379" x2="463.999908" y1="282.080292" y2="282.080292">
        <stop offset="0" stop-color="#e66100"/>
        <stop offset="0.0526316" stop-color="#ffa348"/>
        <stop offset="0.105263" stop-color="#e66100"/>
        <stop offset="0.894737" stop-color="#e66100"/>
        <stop offset="0.947368" stop-color="#ffa348"/>
        <stop offset="1" stop-color="#e66100"/>
    </linearGradient>
    <linearGradient id="c" gradientTransform="matrix(0.201924 0 0 0.143616 26.307674 55.808624)" gradientUnits="userSpaceOnUse" x1="47.999931" x2="463.998383" y1="267.0401" y2="267.0401">
        <stop offset="0" stop-color="#813d9c"/>
        <stop offset="0.0526316" stop-color="#dc8add"/>
        <stop offset="0.105263" stop-color="#9141ac"/>
        <stop offset="0.894737" stop-color="#9141ac"/>
        <stop offset="0.947368" stop-color="#dc8add"/>
        <stop offset="1" stop-color="#9141ac"/>
    </linearGradient>
    <clipPath id="d">
        <rect height="128" width="128"/>
    </clipPath>
    <clipPath id="e">
        <rect height="128" width="128"/>
    </clipPath>
    <filter id="f" height="100%" width="100%" x="0%" y="0%">
        <feColorMatrix in="SourceGraphic" type="matrix" values="0 0 0 0 1 0 0 0 0 1 0 0 0 0 1 0 0 0 1 0"/>
    </filter>
    <mask id="g">
        <g clip-path="url(#e)" filter="url(#f)">
            <g clip-path="url(#d)">
                <path d="m 16 70 h 48 c 4.417969 0 8 3.582031 8 8 v 34 c 0 4.417969 -3.582031 8 -8 8 h -48 c -4.417969 0 -8 -3.582031 -8 -8 v -34 c 0 -4.417969 3.582031 -8 8 -8 z m 0 0" fill="url(#a)"/>
                <path d="m 16 62 h 48 c 4.417969 0 8 3.582031 8 8 v 36 c 0 4.417969 -3.582031 8 -8 8 h -48 c -4.417969 0 -8 -3.582031 -8 -8 v -36 c 0 -4.417969 3.582031 -8 8 -8 z m 0 0" fill="#f9f06b"/>
                <path d="m 26 60.167969 h 60 c 4.417969 0 8 3.582031 8 8 v 29.832031 c 0 4.417969 -3.582031 8 -8 8 h -60 c -4.417969 0 -8 -3.582031 -8 -8 v -29.832031 c 0 -4.417969 3.582031 -8 8 -8 z m 0 0" fill="url(#b)"/>
                <path d="m 26 34 h 60 c 4.417969 0 8 3.582031 8 8 v 50 c 0 4.417969 -3.582031 8 -8 8 h -60 c -4.417969 0 -8 -3.582031 -8 -8 v -50 c 0 -4.417969 3.582031 -8 8 -8 z m 0 0" fill="#ffa348"/>
                <path d="m 44 38 h 68 c 4.417969 0 8 3.582031 8 8 v 38 c 0 4.417969 -3.582031 8 -8 8 h -68 c -4.417969 0 -8 -3.582031 -8 -8 v -38 c 0 -4.417969 3.582031 -8 8 -8 z m 0 0" fill="url(#c)"/>
                <path d="m 44 8 h 68 c 4.417969 0 8 3.582031 8 8 v 62 c 0 4.417969 -3.582031 8 -8 8 h -68 c -4.417969 0 -8 -3.582031 -8 -8 v -62 c 0 -4.417969 3.582031 -8 8 -8 z m 0 0" fill="#c061cb"/>
                <path d="m 81.125 26.011719 c 0.753906 0.046875 1.507812 0.132812 2.25 0.253906 c 6.324219 0.898437 12.03125 4.269531 15.875 9.371094 c 7.925781 10.570312 5.695312 25.703125 -4.867188 33.628906 c -10.570312 7.921875 -25.703124 5.6875 -33.625 -4.878906 c -0.492187 -0.679688 -0.761718 -1.527344 -0.753906 -2.371094 v -4 h 4 c 1.277344 0.003906 2.480469 0.605469 3.253906 1.621094 c 5.328126 7.109375 15.265626 8.457031 22.371094 3.125 c 7.109375 -5.328125 8.457032 -15.261719 3.128906 -22.371094 c -5.339843 -7.109375 -15.277343 -8.457031 -22.386718 -3.128906 c -1.71875 1.292969 -3.078125 2.933593 -4.121094 4.753906 h 5.75 c 2.210938 0 4 1.789063 4 4 v 4 h -24 v -24.003906 h 4 c 2.210938 0 4 1.792969 4 4.003906 v 6.75 c 4.636719 -7.074219 12.675781 -11.164063 21.125 -10.753906 z m 0 0" fill="#613583"/>
                <path d="m 81.125 24.011719 c 0.753906 0.046875 1.507812 0.132812 2.25 0.253906 c 6.324219 0.898437 12.03125 4.269531 15.875 9.371094 c 7.925781 10.570312 5.695312 25.703125 -4.867188 33.628906 c -10.570312 7.921875 -25.703124 5.6875 -33.625 -4.878906 c -0.492187 -0.679688 -0.761718 -1.527344 -0.753906 -2.371094 v -4 h 4 c 1.277344 0.003906 2.480469 0.605469 3.253906 1.621094 c 5.328126 7.109375 15.265626 8.457031 22.371094 3.125 c 7.109375 -5.328125 8.457032 -15.261719 3.128906 -22.371094 c -5.339843 -7.109375 -15.277343 -8.457031 -22.386718 -3.128906 c -1.71875 1.292969 -3.078125 2.933593 -4.121094 4.753906 h 5.75 c 2.210938 0 4 1.789063 4 4 v 4 h -24 v -24.003906 h 4 c 2.210938 0 4 1.792969 4 4.003906 v 6.75 c 4.636719 -7.074219 12.675781 -11.164063 21.125 -10.753906 z m 0 0" fill="#fcdafc"/>
            </g>
        </g>
    </mask>
    <mask id="h">
        <g filter="url(#f)">
            <rect fill-opacity="0.8" height="128" width="128"/>
        </g>
    </mask>
    <linearGradient id="i" gradientTransform="matrix(0 0.37 -0.98462 0 295.38501 -30.360001)" gradientUnits="userSpaceOnUse" x1="300" x2="428" y1="235" y2="235">
        <stop offset="0" stop-color="#f9f06b"/>
        <stop offset="1" stop-color="#f5c211"/>
    </linearGradient>
    <clipPath id="j">
        <rect height="128" width="128"/>
    </clipPath>
    <clipPath id="k">
        <rect height="128" width="128"/>
    </clipPath>
    <path d="m 16 70 h 48 c 4.417969 0 8 3.582031 8 8 v 34 c 0 4.417969 -3.582031 8 -8 8 h -48 c -4.417969 0 -8 -3.582031 -8 -8 v -34 c 0 -4.417969 3.582031 -8 8 -8 z m 0 0" fill="url(#a)"/>
    <path d="m 16 62 h 48 c 4.417969 0 8 3.582031 8 8 v 36 c 0 4.417969 -3.582031 8 -8 8 h -48 c -4.417969 0 -8 -3.582031 -8 -8 v -36 c 0 -4.417969 3.582031 -8 8 -8 z m 0 0" fill="#f9f06b"/>
    <path d="m 26 60.167969 h 60 c 4.417969 0 8 3.582031 8 8 v 29.832031 c 0 4.417969 -3.582031 8 -8 8 h -60 c -4.417969 0 -8 -3.582031 -8 -8 v -29.832031 c 0 -4.417969 3.582031 -8 8 -8 z m 0 0" fill="url(#b)"/>
    <path d="m 26 34 h 60 c 4.417969 0 8 3.582031 8 8 v 50 c 0 4.417969 -3.582031 8 -8 8 h -60 c -4.417969 0 -8 -3.582031 -8 -8 v -50 c 0 -4.417969 3.582031 -8 8 -8 z m 0 0" fill="#ffa348"/>
    <path d="m 44 38 h 68 c 4.417969 0 8 3.582031 8 8 v 38 c 0 4.417969 -3.582031 8 -8 8 h -68 c -4.417969 0 -8 -3.582031 -8 -8 v -38 c 0 -4.417969 3.582031 -8 8 -8 z m 0 0" fill="url(#c)"/>
    <path d="m 44 8 h 68 c 4.417969 0 8 3.582031 8 8 v 62 c 0 4.417969 -3.582031 8 -8 8 h -68 c -4.417969 0 -8 -3.582031 -8 -8 v -62 c 0 -4.417969 3.582031 -8 8 -8 z m 0 0" fill="#c061cb"/>
    <path d="m 81.125 26.011719 c 0.753906 0.046875 1.507812 0.132812 2.25 0.253906 c 6.324219 0.898437 12.03125 4.269531 15.875 9.371094 c 7.925781 10.570312 5.695312 25.703125 -4.867188 33.628906 c -10.570312 7.921875 -25.703124 5.6875 -33.625 -4.878906 c -0.492187 -0.679688 -0.761718 -1.527344 -0.753906 -2.371094 v -4 h 4 c 1.277344 0.003906 2.480469 0.605469 3.253906 1.621094 c 5.328126 7.109375 15.265626 8.457031 22.371094 3.125 c 7.109375 -5.328125 8.457032 -15.261719 3.128906 -22.371094 c -5.339843 -7.109375 -15.277343 -8.457031 -22.386718 -3.128906 c -1.71875 1.292969 -3.078125 2.933593 -4.121094 4.753906 h 5.75 c 2.210938 0 4 1.789063 4 4 v 4 h -24 v -24.003906 h 4 c 2.210938 0 4 1.792969 4 4.003906 v 6.75 c 4.636719 -7.074219 12.675781 -11.164063 21.125 -10.753906 z m 0 0" fill="#613583"/>
    <path d="m 81.125 24.011719 c 0.753906 0.046875 1.507812 0.132812 2.25 0.253906 c 6.324219 0.898437 12.03125 4.269531 15.875 9.371094 c 7.925781 10.570312 5.695312 25.703125 -4.867188 33.628906 c -10.570312 7.921875 -25.703124 5.6875 -33.625 -4.878906 c -0.492187 -0.679688 -0.761718 -1.527344 -0.753906 -2.371094 v -4 h 4 c 1.277344 0.003906 2.480469 0.605469 3.253906 1.621094 c 5.328126 7.109375 15.265626 8.457031 22.371094 3.125 c 7.109375 -5.328125 8.457032 -15.261719 3.128906 -22.371094 c -5.339843 -7.109375 -15.277343 -8.457031 -22.386718 -3.128906 c -1.71875 1.292969 -3.078125 2.933593 -4.121094 4.753906 h 5.75 c 2.210938 0 4 1.789063 4 4 v 4 h -24 v -24.003906 h 4 c 2.210938 0 4 1.792969 4 4.003906 v 6.75 c 4.636719 -7.074219 12.675781 -11.164063 21.125 -10.753906 z m 0 0" fill="#fcdafc"/>
    <g clip-path="url(#k)" mask="url(#g)">
        <g clip-path="url(#j)" mask="url(#h)">
            <path d="m 128 80.640625 v 47.359375 h -128 v -47.359375 z m 0 0" fill="url(#i)"/>
            <path d="m 13.308594 80.640625 l 47.355468 47.359375 h 21.214844 l -47.359375 -47.359375 z m 42.421875 0 l 47.363281 47.359375 h 21.214844 l -47.363282 -47.359375 z m 42.429687 0 l 29.839844 29.839844 v -21.210938 l -8.628906 -8.628906 z m -98.160156 7.90625 v 21.214844 l 18.238281 18.238281 h 21.214844 z m 0 0"/>
        </g>
    </g>
</svg>
