<?xml version="1.0" encoding="UTF-8"?>
<svg height="128px" viewBox="0 0 128 128" width="128px" xmlns="http://www.w3.org/2000/svg" xmlns:xlink="http://www.w3.org/1999/xlink">
    <filter id="a" height="100%" width="100%" x="0%" y="0%">
        <feColorMatrix in="SourceGraphic" type="matrix" values="0 0 0 0 1 0 0 0 0 1 0 0 0 0 1 0 0 0 1 0"/>
    </filter>
    <mask id="b">
        <g filter="url(#a)">
            <rect fill-opacity="0.363" height="128" width="128"/>
        </g>
    </mask>
    <clipPath id="c">
        <rect height="128" width="128"/>
    </clipPath>
    <path d="m 25 94 h 64 c 4.417969 0 8 3.582031 8 8 v 8 c 0 4.417969 -3.582031 10 -8 10 h -64 c -4.417969 0 -8 -5.582031 -8 -10 v -8 c 0 -4.417969 3.582031 -8 8 -8 z m 0 0" fill="#f8e45c"/>
    <path d="m 27 40 h 60 c 4.417969 0 10 5.582031 10 10 v 52 c 0 4.417969 -5.582031 10 -10 10 h -60 c -4.417969 0 -10 -5.582031 -10 -10 v -52 c 0 -4.417969 5.582031 -10 10 -10 z m 0 0" fill="#f9f06b"/>
    <path d="m 32 78 h 64 c 4.417969 0 8 3.582031 8 8 v 8 c 0 4.417969 -3.582031 10 -8 10 h -64 c -4.417969 0 -8 -5.582031 -8 -10 v -8 c 0 -4.417969 3.582031 -8 8 -8 z m 0 0" fill="#ff7800"/>
    <path d="m 34 24 h 60 c 4.417969 0 10 5.582031 10 10 v 52 c 0 4.417969 -5.582031 10 -10 10 h -60 c -4.417969 0 -10 -5.582031 -10 -10 v -52 c 0 -4.417969 5.582031 -10 10 -10 z m 0 0" fill="#ffa348"/>
    <path d="m 39 62 h 64 c 4.417969 0 8 3.582031 8 8 v 8 c 0 4.417969 -3.582031 10 -8 10 h -64 c -4.417969 0 -8 -5.582031 -8 -10 v -8 c 0 -4.417969 3.582031 -8 8 -8 z m 0 0" fill="#813d9c"/>
    <path d="m 41 8 h 60 c 4.417969 0 10 5.582031 10 10 v 52 c 0 4.417969 -5.582031 10 -10 10 h -60 c -4.417969 0 -10 -5.582031 -10 -10 v -52 c 0 -4.417969 5.582031 -10 10 -10 z m 0 0" fill="#9141ac"/>
    <g clip-path="url(#c)" mask="url(#b)">
        <path d="m -26.730495 102.529666 c -2.773193 0.001089 -5.368307 -0.515288 -7.784642 -1.545966 c -2.382612 -0.998273 -4.482478 -2.40097 -6.294663 -4.215822 c -1.778417 -1.812343 -3.181394 -3.910104 -4.212098 -6.292585 c -0.996935 -2.379972 -1.495461 -4.939681 -1.495578 -7.679126 c 0.001237 -2.703217 0.480643 -5.226402 1.440688 -7.573421 c 0.995628 -2.381438 2.347495 -4.443032 4.054903 -6.187951 c 0 0 0.596463 -0.819004 2.115367 0.449593 c 1.535766 1.284799 0.657808 2.378448 0.657808 2.378448 c -1.386791 1.421792 -2.489682 3.076454 -3.306204 4.960122 c -0.81969 1.884367 -1.227586 3.873761 -1.229324 5.972745 c 0.002975 2.240728 0.40967 4.339222 1.22642 6.294083 c 0.855501 1.919744 2.008614 3.607773 3.469541 5.065157 c 1.49083 1.457424 3.197431 2.598259 5.117709 3.413006 c 1.957912 0.819723 4.037458 1.227413 6.240037 1.229404 c 2.241983 -0.000065 4.320642 -0.40904 6.242313 -1.228321 c 1.955439 -0.816773 3.660182 -1.956759 5.118793 -3.414326 c 1.458611 -1.457566 2.577383 -3.145619 3.359482 -5.064857 c 0.816984 -1.956822 1.227854 -4.05313 1.228047 -6.294558 c -0.002276 -2.237562 -0.446234 -4.354396 -1.334342 -6.346637 c -0.888109 -1.99224 -2.078812 -3.71514 -3.572808 -5.171866 l -0.204694 0.201245 l -3.583466 3.58351 l -2.238363 -12.745084 l 12.692456 2.292392 l -3.945301 3.945619 c 1.846415 1.744206 3.288796 3.839912 4.319038 6.295547 c 1.06578 2.451112 1.601108 5.102315 1.600718 7.94481 c -0.002397 2.773205 -0.499127 5.353343 -1.494754 7.73478 c -0.995628 2.381437 -2.398914 4.480945 -4.214423 6.29289 c -1.776759 1.776828 -3.855128 3.165306 -6.23967 4.159801 c -2.380022 1.030024 -4.959797 1.546279 -7.73299 1.547368 z m 0 0" fill="#d1a9df" stroke="#d1a9df" stroke-linecap="round" stroke-linejoin="round" stroke-width="2.490605" transform="matrix(0.25964 -1.176058 1.176379 0.259569 -19.966438 -8.089177)"/>
    </g>
</svg>
