<?xml version="1.0" encoding="UTF-8"?>
<svg height="128px" viewBox="0 0 128 128" width="128px" xmlns="http://www.w3.org/2000/svg" xmlns:xlink="http://www.w3.org/1999/xlink">
    <linearGradient id="a" gradientUnits="userSpaceOnUse" x1="17.999944" x2="109.999924" y1="75.999984" y2="75.999984">
        <stop offset="0" stop-color="#e66100"/>
        <stop offset="0.5" stop-color="#ff7800"/>
        <stop offset="1" stop-color="#e66100"/>
    </linearGradient>
    <linearGradient id="b" gradientUnits="userSpaceOnUse" x1="17.999944" x2="109.999924" y1="67.999984" y2="67.999984">
        <stop offset="0" stop-color="#e5a50a"/>
        <stop offset="0.5" stop-color="#f5c211"/>
        <stop offset="1" stop-color="#e5a50a"/>
    </linearGradient>
    <linearGradient id="c" gradientUnits="userSpaceOnUse" x1="17.999944" x2="109.999924" y1="59.999984" y2="59.999984">
        <stop offset="0" stop-color="#9848b7"/>
        <stop offset="0.5" stop-color="#bb56c8"/>
        <stop offset="1" stop-color="#9848b7"/>
    </linearGradient>
    <clipPath id="d">
        <rect height="128" width="128"/>
    </clipPath>
    <clipPath id="e">
        <rect height="128" width="128"/>
    </clipPath>
    <filter id="f" height="100%" width="100%" x="0%" y="0%">
        <feColorMatrix in="SourceGraphic" type="matrix" values="0 0 0 0 1 0 0 0 0 1 0 0 0 0 1 0 0 0 1 0"/>
    </filter>
    <mask id="g">
        <g clip-path="url(#e)" filter="url(#f)">
            <g clip-path="url(#d)">
                <path d="m 18 52 h 92 v 8 h -92 z m 0 0" fill="#9141ac"/>
                <path d="m 110 76 c 0 25.40625 -20.59375 46 -46 46 s -46 -20.59375 -46 -46 s 20.59375 -46 46 -46 s 46 20.59375 46 46 z m 0 0" fill="url(#a)"/>
                <path d="m 110 69 c 0 25.40625 -20.59375 46 -46 46 s -46 -20.59375 -46 -46 s 20.59375 -46 46 -46 s 46 20.59375 46 46 z m 0 0" fill="#c64600"/>
                <path d="m 18 68 h 92 v 8 h -92 z m 0 0" fill="#e66100"/>
                <path d="m 110 68 c 0 25.40625 -20.59375 46 -46 46 s -46 -20.59375 -46 -46 s 20.59375 -46 46 -46 s 46 20.59375 46 46 z m 0 0" fill="url(#b)"/>
                <path d="m 18 60 h 92 v 8 h -92 z m 0 0" fill="#e5a50a"/>
                <path d="m 110 60 c 0 25.40625 -20.59375 46 -46 46 s -46 -20.59375 -46 -46 s 20.59375 -46 46 -46 s 46 20.59375 46 46 z m 0 0" fill="url(#c)"/>
                <path d="m 110 52 c 0 25.40625 -20.59375 46 -46 46 s -46 -20.59375 -46 -46 s 20.59375 -46 46 -46 s 46 20.59375 46 46 z m 0 0" fill="#c061cb"/>
                <path d="m 285.613281 43.613281 c 8.324219 -8.320312 21.195313 -10.015625 31.386719 -4.128906 c 10.191406 5.882813 15.160156 17.878906 12.113281 29.246094 c -3.046875 11.367187 -13.34375 19.269531 -25.113281 19.269531 s -22.066406 -7.902344 -25.113281 -19.269531" fill="none" stroke="#9141ac" stroke-linecap="round" stroke-width="4.00001" transform="matrix(1 0 0 1 -240 -8)"/>
                <path d="m 289 49 h -9 v -9 z m 0 0" fill="#ffffff" stroke="#9141ac" stroke-linecap="round" stroke-linejoin="round" stroke-width="4" transform="matrix(1 0 0 1 -240 -8)"/>
                <path d="m 314 70 l -10 -6 v -16" fill="none" stroke="#9141ac" stroke-linecap="round" stroke-width="4" transform="matrix(1 0 0 1 -240 -8)"/>
                <path d="m 285.613281 43.613281 c 8.324219 -8.320312 21.195313 -10.015625 31.386719 -4.128906 c 10.191406 5.882813 15.160156 17.878906 12.113281 29.246094 c -3.046875 11.367187 -13.34375 19.269531 -25.113281 19.269531 s -22.066406 -7.902344 -25.113281 -19.269531" fill="none" stroke="#f6d1f6" stroke-linecap="round" stroke-width="4.00001" transform="matrix(1 0 0 1 -240 -11)"/>
                <path d="m 289 49 h -9 v -9 z m 0 0" fill="#f6d1f6" stroke="#f6d1f6" stroke-linecap="round" stroke-linejoin="round" stroke-width="4" transform="matrix(1 0 0 1 -240 -11)"/>
                <path d="m 314 70 l -10 -6 v -16" fill="none" stroke="#f6d1f6" stroke-linecap="round" stroke-width="4" transform="matrix(1 0 0 1 -240 -11)"/>
            </g>
        </g>
    </mask>
    <mask id="h">
        <g filter="url(#f)">
            <rect fill-opacity="0.8" height="128" width="128"/>
        </g>
    </mask>
    <linearGradient id="i" gradientTransform="matrix(0 0.37 -0.98462 0 295.38501 -30.360001)" gradientUnits="userSpaceOnUse" x1="300" x2="428" y1="235" y2="235">
        <stop offset="0" stop-color="#f9f06b"/>
        <stop offset="1" stop-color="#f5c211"/>
    </linearGradient>
    <clipPath id="j">
        <rect height="128" width="128"/>
    </clipPath>
    <clipPath id="k">
        <rect height="128" width="128"/>
    </clipPath>
    <path d="m 18 52 h 92 v 8 h -92 z m 0 0" fill="#9141ac"/>
    <path d="m 110 76 c 0 25.40625 -20.59375 46 -46 46 s -46 -20.59375 -46 -46 s 20.59375 -46 46 -46 s 46 20.59375 46 46 z m 0 0" fill="url(#a)"/>
    <path d="m 110 69 c 0 25.40625 -20.59375 46 -46 46 s -46 -20.59375 -46 -46 s 20.59375 -46 46 -46 s 46 20.59375 46 46 z m 0 0" fill="#c64600"/>
    <path d="m 18 68 h 92 v 8 h -92 z m 0 0" fill="#e66100"/>
    <path d="m 110 68 c 0 25.40625 -20.59375 46 -46 46 s -46 -20.59375 -46 -46 s 20.59375 -46 46 -46 s 46 20.59375 46 46 z m 0 0" fill="url(#b)"/>
    <path d="m 18 60 h 92 v 8 h -92 z m 0 0" fill="#e5a50a"/>
    <path d="m 110 60 c 0 25.40625 -20.59375 46 -46 46 s -46 -20.59375 -46 -46 s 20.59375 -46 46 -46 s 46 20.59375 46 46 z m 0 0" fill="url(#c)"/>
    <path d="m 110 52 c 0 25.40625 -20.59375 46 -46 46 s -46 -20.59375 -46 -46 s 20.59375 -46 46 -46 s 46 20.59375 46 46 z m 0 0" fill="#c061cb"/>
    <g stroke-linecap="round">
        <path d="m 45.613281 35.613281 c 8.324219 -8.320312 21.195313 -10.015625 31.386719 -4.128906 c 10.191406 5.882813 15.160156 17.878906 12.113281 29.246094 c -3.046875 11.367187 -13.34375 19.269531 -25.113281 19.269531 s -22.066406 -7.902344 -25.113281 -19.269531" fill="none" stroke="#9141ac" stroke-width="4.00001"/>
        <path d="m 49 41 h -9 v -9 z m 0 0" fill="#ffffff" stroke="#9141ac" stroke-linejoin="round" stroke-width="4"/>
        <path d="m 74 62 l -10 -6 v -16" fill="none" stroke="#9141ac" stroke-width="4"/>
        <path d="m 45.613281 32.613281 c 8.324219 -8.320312 21.195313 -10.015625 31.386719 -4.128906 c 10.191406 5.882813 15.160156 17.878906 12.113281 29.246094 c -3.046875 11.367187 -13.34375 19.269531 -25.113281 19.269531 s -22.066406 -7.902344 -25.113281 -19.269531" fill="none" stroke="#f6d1f6" stroke-width="4.00001"/>
        <path d="m 49 38 h -9 v -9 z m 0 0" fill="#f6d1f6" stroke="#f6d1f6" stroke-linejoin="round" stroke-width="4"/>
        <path d="m 74 59 l -10 -6 v -16" fill="none" stroke="#f6d1f6" stroke-width="4"/>
    </g>
    <g clip-path="url(#k)" mask="url(#g)">
        <g clip-path="url(#j)" mask="url(#h)">
            <path d="m 128 80.640625 v 47.359375 h -128 v -47.359375 z m 0 0" fill="url(#i)"/>
            <path d="m 13.308594 80.640625 l 47.355468 47.359375 h 21.214844 l -47.359375 -47.359375 z m 42.421875 0 l 47.363281 47.359375 h 21.214844 l -47.363282 -47.359375 z m 42.429687 0 l 29.839844 29.839844 v -21.210938 l -8.628906 -8.628906 z m -98.160156 7.90625 v 21.214844 l 18.238281 18.238281 h 21.214844 z m 0 0"/>
        </g>
    </g>
</svg>
