<?xml version="1.0" encoding="UTF-8"?>
<svg height="128px" viewBox="0 0 128 128" width="128px" xmlns="http://www.w3.org/2000/svg" xmlns:xlink="http://www.w3.org/1999/xlink">
    <clipPath id="a">
        <rect height="128" width="128"/>
    </clipPath>
    <clipPath id="b">
        <rect height="128" width="128"/>
    </clipPath>
    <filter id="c" height="100%" width="100%" x="0%" y="0%">
        <feColorMatrix in="SourceGraphic" type="matrix" values="0 0 0 0 1 0 0 0 0 1 0 0 0 0 1 0 0 0 1 0"/>
    </filter>
    <mask id="d">
        <g clip-path="url(#b)" filter="url(#c)">
            <g clip-path="url(#a)">
                <path d="m 14.789062 41.804688 l 91.207032 24.4375 l -12.789063 47.734374 l -91.207031 -24.4375 z m 0 0" fill="#f9f06b" fill-rule="evenodd"/>
                <path d="m 2.011719 89.527344 l 91.207031 24.441406 l -5.625 3.609375 l -82.519531 -22.113281 z" fill="#f8e45c" fill-rule="evenodd"/>
                <path d="m 35.65625 21.332031 l 81.144531 49.550781 l -23.59375 43.097657 l -81.148437 -49.554688 z m 0 0" fill="#ffa348" fill-rule="evenodd"/>
                <path d="m 12.070312 64.417969 l 81.148438 49.550781 l -6.226562 1.949219 l -73.417969 -44.832031 z" fill="#ff7800" fill-rule="evenodd"/>
                <path d="m 60.441406 7.171875 l 65.558594 71.285156 l -32.792969 35.523438 l -65.558593 -71.289063 z m 0 0" fill="#9141ac" fill-rule="evenodd"/>
                <path d="m 27.660156 42.683594 l 65.558594 71.285156 l -6.402344 0.15625 l -59.3125 -64.496094 z" fill="#813d9c" fill-rule="evenodd"/>
                <path d="m 15.592846 28.799277 c -3.149162 -5.780526 -2.837037 -13.928866 0.733805 -19.201929 c 3.570842 -5.27203 9.336898 -6.096786 13.588836 -1.944068" fill="none" stroke="#5e5c64" stroke-linecap="round" stroke-linejoin="round" stroke-width="2.645833" transform="matrix(3.779527 0 0 3.779527 0.000007 0)"/>
                <path d="m 10.842366 289.201365 l 0.974598 1.657461 l -1.922785 0.015668 z m 0 0" fill="#77767b" fill-rule="evenodd" stroke="#5e5c64" stroke-linecap="round" stroke-width="1.5875" transform="matrix(6.113545 7.158238 -7.158238 6.113545 2066.445503 -1753.556158)"/>
                <path d="m 15.328262 27.211777 c -3.149162 -5.780526 -2.837036 -13.928866 0.733806 -19.20193 c 3.570841 -5.272029 9.336898 -6.096785 13.588835 -1.944067" fill="none" stroke="#f6f5f4" stroke-linecap="round" stroke-linejoin="round" stroke-width="2.645833" transform="matrix(3.779527 0 0 3.779527 0.000007 0)"/>
                <path d="m 10.842374 289.20137 l 0.974599 1.657461 l -1.922785 0.015668 z m 0 0" fill="#77767b" fill-rule="evenodd" stroke="#f6f5f4" stroke-linecap="round" stroke-width="1.5875" transform="matrix(6.113545 7.158238 -7.158238 6.113545 2065.445488 -1759.55625)"/>
            </g>
        </g>
    </mask>
    <mask id="e">
        <g filter="url(#c)">
            <rect fill-opacity="0.8" height="128" width="128"/>
        </g>
    </mask>
    <linearGradient id="f" gradientTransform="matrix(0 0.37 -0.98462 0 295.38501 -30.360001)" gradientUnits="userSpaceOnUse" x1="300" x2="428" y1="235" y2="235">
        <stop offset="0" stop-color="#f9f06b"/>
        <stop offset="1" stop-color="#f5c211"/>
    </linearGradient>
    <clipPath id="g">
        <rect height="128" width="128"/>
    </clipPath>
    <clipPath id="h">
        <rect height="128" width="128"/>
    </clipPath>
    <g fill-rule="evenodd">
        <path d="m 14.789062 41.804688 l 91.207032 24.4375 l -12.789063 47.734374 l -91.207031 -24.4375 z m 0 0" fill="#f9f06b"/>
        <path d="m 2.011719 89.527344 l 91.207031 24.441406 l -5.625 3.609375 l -82.519531 -22.113281 z" fill="#f8e45c"/>
        <path d="m 35.65625 21.332031 l 81.144531 49.550781 l -23.59375 43.097657 l -81.148437 -49.554688 z m 0 0" fill="#ffa348"/>
        <path d="m 12.070312 64.417969 l 81.148438 49.550781 l -6.226562 1.949219 l -73.417969 -44.832031 z" fill="#ff7800"/>
        <path d="m 60.441406 7.171875 l 65.558594 71.285156 l -32.792969 35.523438 l -65.558593 -71.289063 z m 0 0" fill="#9141ac"/>
        <path d="m 27.660156 42.683594 l 65.558594 71.285156 l -6.402344 0.15625 l -59.3125 -64.496094 z" fill="#813d9c"/>
    </g>
    <path d="m 58.93358946384 108.84764500198 c -11.90234280637 -21.8476540912 -10.7226579415 -52.64452512638 2.77343581024 -72.57420910758 c 13.49609375173 -19.92577972981 35.28905808725 -23.04296730022 51.35937256057 -7.34765749584" fill="none" stroke="#5e5c64" stroke-linecap="round" stroke-linejoin="round" stroke-width="9.99999726099"/>
    <path d="m 10.842366 289.201365 l 0.974598 1.657461 l -1.922785 0.015668 z m 0 0" fill="#77767b" fill-rule="evenodd" stroke="#5e5c64" stroke-linecap="round" stroke-width="1.5875" transform="matrix(6.113545 7.158238 -7.158238 6.113545 2066.445503 -1753.556158)"/>
    <path d="m 57.93358709207 102.84764588948 c -11.90234280637 -21.8476540912 -10.72265416197 -52.64452512638 2.77343958976 -72.57421288711 c 13.49608997221 -19.92577595028 35.28905808725 -23.0429635207 51.35936878105 -7.34765371631" fill="none" stroke="#f6f5f4" stroke-linecap="round" stroke-linejoin="round" stroke-width="9.99999726099"/>
    <path d="m 10.842374 289.20137 l 0.974599 1.657461 l -1.922785 0.015668 z m 0 0" fill="#77767b" fill-rule="evenodd" stroke="#f6f5f4" stroke-linecap="round" stroke-width="1.5875" transform="matrix(6.113545 7.158238 -7.158238 6.113545 2065.445488 -1759.55625)"/>
    <g clip-path="url(#h)" mask="url(#d)">
        <g clip-path="url(#g)" mask="url(#e)">
            <path d="m 128 80.640625 v 47.359375 h -128 v -47.359375 z m 0 0" fill="url(#f)"/>
            <path d="m 13.308594 80.640625 l 47.355468 47.359375 h 21.214844 l -47.359375 -47.359375 z m 42.421875 0 l 47.363281 47.359375 h 21.214844 l -47.363282 -47.359375 z m 42.429687 0 l 29.839844 29.839844 v -21.210938 l -8.628906 -8.628906 z m -98.160156 7.90625 v 21.214844 l 18.238281 18.238281 h 21.214844 z m 0 0"/>
        </g>
    </g>
</svg>
